/* XPM */
static char *exit[] = {
/* columns rows colors chars-per-pixel */
"41 42 2 1 ",
"  c #C14B4B",
". c None",
/* pixels */
".........................................",
".........      ..........................",
"........       ..........................",
"........       ..........................",
"........       ..........................",
"........        .........................",
".........       .........................",
".........       ....................  ...",
".........        ...............       ..",
".........        ..............        ..",
"..........        .............        ..",
"..........         ..........          ..",
"..........         ..........          ..",
"...........        .........          ...",
"............        ......            ...",
"............         ....            ....",
".............        ..              ....",
".............                       .....",
"..............                     ......",
"...............                 .........",
".............                  ..........",
"..........                    ...........",
".......                      ............",
".....                       .............",
"....                     ................",
"...                       ...............",
"..                .        ..............",
".               ....       ..............",
".             ......        .............",
"..           .......        .............",
"..         ..........        ............",
"..      .............        ............",
"...  ................        ............",
"......................        ...........",
".......................       ...........",
".......................        ..........",
"........................       ..........",
"..........................     ..........",
".........................................",
".........................................",
".........................................",
"........................................."
};
