/* XPM */
static char *finish_bubble[] = {
/* columns rows colors chars-per-pixel */
"41 42 2 1 ",
"  c #58CC1A",
". c None",
/* pixels */
".........................................",
"......    ...........          ..........",
"......    .......               .........",
"......                            .......",
"......                             ......",
"......                .....        ......",
".......            ..........     .......",
".......    ..................... ........",
"........    .............................",
"........     ............................",
"........      ...........................",
".........     ...........................",
".........     ...........................",
".........     ...........................",
"..........    ...........................",
"..........    ...........................",
"..........    ......     ....... ........",
"..........    ......        ...    ......",
"..........    .....                ......",
"..........    ....                .......",
"..........     ..    ....        ........",
"..........           .......  ...........",
"..........           ....................",
"...........        ......................",
"...........       .......................",
"...........     .........................",
"...........    ..........................",
"...........     .........................",
"...........     .........................",
"...........     .........................",
"...........     .........................",
".      ....     .........................",
".      ....     .........................",
"..       ...    .........................",
"..        ..    .........................",
"..         .    .........................",
"...              ........................",
".....            ........................",
".......          ........................",
"........         ........................",
"..........      .........................",
"........................................."
};
