/* XPM */
static char *load[] = {
/* columns rows colors chars-per-pixel */
"41 42 97 2 ",
"   c #00041A",
".  c #000B1B",
"X  c #00131E",
"o  c #00191E",
"O  c #002B24",
"+  c #003329",
"@  c #003B2C",
"#  c #00412F",
"$  c #004333",
"%  c #00453B",
"&  c #003F4F",
"*  c #003D53",
"=  c #00365E",
"-  c #003A5A",
";  c #011D6F",
":  c #021774",
">  c #041D75",
",  c #06177A",
"<  c #0C177B",
"1  c #061C78",
"2  c #0B1B7B",
"3  c #17177C",
"4  c #141A7B",
"5  c #1D1A7B",
"6  c #24177D",
"7  c #2C177D",
"8  c #241A7C",
"9  c #2C1A7D",
"0  c #34177E",
"q  c #341A7D",
"w  c #3C1A7D",
"e  c #002467",
"r  c #012E66",
"t  c #02266E",
"y  c #012B6C",
"u  c #003264",
"i  c #013069",
"p  c #022373",
"a  c #05237D",
"s  c #06287E",
"d  c #4B177F",
"f  c #441A7E",
"g  c #4B1A7D",
"h  c #56177F",
"j  c #50197E",
"k  c #5B197F",
"l  c #62197F",
"z  c #004443",
"x  c #00424A",
"c  c #1D1D80",
"v  c #241F80",
"b  c #2C1B81",
"n  c #341980",
"m  c #3C1B81",
"M  c #0D2C82",
"N  c #142481",
"B  c #1D2381",
"V  c #172A82",
"C  c #0E3283",
"Z  c #173786",
"A  c #1D3284",
"S  c #2C2081",
"D  c #242B84",
"F  c #342182",
"G  c #441880",
"H  c #4B1C81",
"J  c #561780",
"K  c #5B1780",
"L  c #541A81",
"P  c #5B1C83",
"I  c #611781",
"U  c #621981",
"Y  c #6B1981",
"T  c #442683",
"R  c #4B2284",
"E  c #442984",
"W  c #5B2C88",
"Q  c #443887",
"!  c #443289",
"~  c #4B3288",
"^  c #5B318A",
"/  c #56388B",
"(  c #5B398D",
")  c #632286",
"_  c #6B2587",
"`  c #6B2988",
"'  c #722688",
"]  c #722989",
"[  c #61378B",
"{  c #64388D",
"}  c #72318B",
"|  c #174F8B",
" . c #344088",
".. c #56418D",
"X. c #5B408F",
"o. c #7554A0",
"O. c None",
/* pixels */
"O.O.O.O.O.O.O.O.O.O.O.O.O.O.O.O.O.O.y t > 2 > O.O.O.O.O.O.O.O.O.O.O.O.O.O.O.O.O.O.",
"O.O.O.O.O.O.O.O.O.O.O.O.O.O.O.O.O.u t > 4 8 > u O.O.O.O.O.O.O.O.O.O.O.O.O.O.O.O.O.",
"O.O.O.O.O.O.O.O.O.O.O.O.O.O.O.u i t 1 w h 0 p y - O.O.O.O.O.O.O.O.O.O.O.O.O.O.O.O.",
"O.O.O.O.O.O.O.O.O.O.O.O.O.O.y i t 1 J ) ) G 1 t u u x O.O.O.O.O.O.O.O.O.O.O.O.O.O.",
"O.O.O.O.O.O.O.O.O.O.O.O.O.t t t a j Y ] ` H 5 a t y i u O.O.O.O.O.O.O.O.O.O.O.O.O.",
"O.O.O.O.O.O.O.O.O.O.p 1 a p p > f K U ] K w 2 2 4 p p u - O.O.O.O.O.O.O.O.O.O.O.O.",
"O.O.O.O.O.O.O.- u y p 1 w 9 w 9 q f U Y w 2 p p p 4 2 t - x % O.O.O.O.O.O.O.O.O.O.",
"O.O.O.O.O.O.u = u y p 2 Y l 4 a 1 2 g U 8 p t r t > 9 p y u x x O.O.O.O.O.O.O.O.O.",
"O.O.O.O.y y i y y t p 8 Y 2 y u p p 4 l 5 t = O.- i > 4 1 : : : : > O.O.O.O.O.O.O.",
"O.O.O.p t p p 1 p 1 2 4 p u x z u t > U 6 y z O o z u p , , C Z C | a p O.O.O.O.O.",
"O.O.> p > 2 2 p p p p t x z @ $ * y > K q t z o . + z - u p > 1 3 Q T a : O.O.O.O.",
"N < 2 2 q < 1 t y i u x O.O.o O z u p h D ; x O   O.O.% * u t : , N E 2 : = z O.O.",
"S 6 w g b 1 p u u * $ O.O.O.  O x r p L A ; * @ X O.O.O.O.- y p 1 2 ! m 1 t i - O.",
"H K k ! a p u u - O.O.O.O.O.O.@ - y 1 g V : * $ O O.O.O.O.O.r t : , c n , p t t t ",
"P U X.C ; u u - O.O.O.O.O.O.O.% - t 1 m B : - % + O.O.O.O.O.O.t > 1 N 3 , p p p p ",
"U {  .p i u u O.O.O.O.O.O.O.O.x - t 1 0 8 : = % + O.O.O.O.O.O.O.: , , < 2 1 > p 2 ",
") ( p y i u O.O.O.O.O.O.O.O.O.x u t > b F : r z @ O.O.O.O.O.O.O.p 1 , < 2 1 1 4 9 ",
"_ a t i O.O.O.O.O.O.O.O.O.O.O.x u t 1 b E 1 e z @ O.O.O.O.O.O.O.O.: , , , 1 2 2 O.",
"O.O.O.O.O.O.O.O.O.O.O.O.O.O.O.- y p 1 n ~ s ; x $ O.O.O.O.O.O.O.O.> : 2 2 2 O.O.O.",
"O.O.O.O.O.O.O.O.O.O.O.O.O.O.O.u y p , R / s ; * $ O.O.O.O.O.O.O.O.O.O.1 O.O.O.O.O.",
"O.O.O.O.O.O.O.O.O.O.O.O.O.O.O.y t > < H ^ N p * $ O.O.O.O.O.O.O.O.O.O.O.O.O.O.O.O.",
"O.O.O.O.O.O.O.O.O.O.O.O.O.O.O.p > > 4 H W v p - % O.O.O.O.O.O.O.O.O.O.O.O.O.O.O.O.",
"O.O.O.O.O.O.O.O.O.O.O.O.O.O.O.p p 2 < m P 7 p - % O.O.O.O.O.O.O.O.O.O.O.O.O.O.O.O.",
"O.O.O.O.O.O.O.O.O.O.O.O.O.O.O.t p > 2 0 K q p x % O.O.O.O.O.O.O.O.O.O.O.O.O.O.O.O.",
"O.O.O.O.O.O.O.O.O.O.O.O.O.O.O.u y p p 8 k f p * $ @ O.O.O.O.O.O.O.O.O.O.O.O.O.O.O.",
"O.O.O.O.O.O.O.O.O.O.O.O.O.O.O.- u y p f Y j 1 = z @ O.O.O.O.O.O.O.O.O.O.O.O.O.O.O.",
"O.O.O.O.O.O.O.O.O.O.O.O.O.O.O.x - u p k l Y 4 = x $ + O.O.O.O.O.O.O.O.O.O.O.O.O.O.",
"O.O.O.O.O.O.O.O.O.O.O.O.O.O.O.O.x u t l Y l 4 u x % @ O.O.O.O.O.O.O.O.O.O.O.O.O.O.",
"O.O.O.O.O.O.O.O.O.O.O.O.O.O.O.O.z u p Y l l p = x $ @ O.O.O.O.O.O.O.O.O.O.O.O.O.O.",
"O.O.O.O.O.O.O.O.O.O.O.O.O.O.O.O.z - p Y j 1 i * % @ @ O.O.O.O.O.O.O.O.O.O.O.O.O.O.",
"O.O.O.O.O.O.O.O.O.O.O.O.O.O.O.O.% u p d p y - & z # @ O.O.O.O.O.O.O.O.O.O.O.O.O.O.",
"O.O.O.O.O.O.O.O.O.O.O.O.O.O.O.O.% y a > u = * & % $ @ O.O.O.O.O.O.O.O.O.O.O.O.O.O.",
"O.O.O.O.O.O.O.O.O.O.O.O.O.O.O.O.x p 1 p u - x x @ @ O.O.O.O.O.O.O.O.O.O.O.O.O.O.O.",
"O.O.O.O.O.O.O.O.O.O.O.O.O.O.O.O.u 1 2 p y * x % O O.O.O.O.O.O.O.O.O.O.O.O.O.O.O.O.",
"O.O.O.O.O.O.O.O.O.O.O.O.O.O.O.O.p 9 8 > y - - x O.O.O.O.O.O.O.O.O.O.O.O.O.O.O.O.O.",
"O.O.O.O.O.O.O.O.O.O.O.O.O.O.O.O.2 w j 2 p y u - O.O.O.O.O.O.O.O.O.O.O.O.O.O.O.O.O.",
"O.O.O.O.O.O.O.O.O.O.O.O.O.O.O.O.a 2 8 f 2 p y u * z O.O.O.O.O.O.O.O.O.O.O.O.O.O.O.",
"O.O.O.O.O.O.O.O.O.O.O.O.O.O.O.O.p t p a 4 2 p p t u - O.O.O.O.O.O.O.O.O.O.O.O.O.O.",
"O.O.O.O.O.O.O.O.O.O.O.O.O.O.O.O.y i y p p 3 7 c 2 1 p t O.O.O.O.O.O.O.O.O.O.O.O.O.",
"O.O.O.O.O.O.O.O.O.O.O.O.O.O.O.O.O.u = u p 1 b W ( ..D 1 O.O.O.O.O.O.O.O.O.O.O.O.O.",
"O.O.O.O.O.O.O.O.O.O.O.O.O.O.O.O.O.O.* - r p 2 L _ } o.K O.O.O.O.O.O.O.O.O.O.O.O.O.",
"O.O.O.O.O.O.O.O.O.O.O.O.O.O.O.O.O.O.O.O.O.p 1 f I Y ] Y O.O.O.O.O.O.O.O.O.O.O.O.O."
};
