/* XPM */
static char *pause_inactive[] = {
/* columns rows colors chars-per-pixel */
"41 42 5 1 ",
"  c #5B7BB1",
". c #5B7BB2",
"X c #5B7CB2",
"o c #5C7CB2",
"O c None",
/* pixels */
"OOOOOOOOO.. ... XOOOOOOOOOOOOOOOOOOOOOOOO",
"OOOOOOOOO          oOOOOOOOOOOOOOOOOOOOOO",
"OOOOOOOO               XOOOOOOOOOOOOOOOOO",
"OOOOOOOO                 oOOOOOOOOOOOOOOO",
"OOOOOOOX                   XOOOOOOOOOOOOO",
"OOOOOOO                     .X OOOOOOOOOO",
"OOOOOOO                     . ..X OOOOOOO",
"OOOOOO                           . XOOOOO",
"OOOOOO                              .XOOO",
"OOOOO .                               . O",
"OOOOO .                               .. ",
"OOOOOOX.                               ..",
"OOOOOO . .                               ",
"OOOOOOOX .                               ",
"OOOOOOOOO   .                            ",
"OOOOOOOOOOO X .                          ",
"OOOOOOOOOOOOOX .                         ",
"OOOOOOoOOOOOOOOX..   .                   ",
"OOO    .X OOOOOOOOo  .                   ",
"OO.  .   XXoOOOOOOOOO                    ",
"O           . OOOOOOOOOX   .          . O",
"O             X.XOOOOOOOOO .         .  O",
"              .  ..OOOOOOOOOX .       .OO",
"                 .  .XOOOOOOOO  X.... XOO",
"                   ... .OOOOOOOOOOOOOOOOO",
"                     .    OOOOOOOOOOOOOOO",
"                        . ..OOOOOOOOOOOOO",
"                               OOOOOOOOOO",
".                                OOOOOOOO",
".                               .X OOOOOO",
"                                  X OOOOO",
" X .                               .oOOOO",
". .                              . .OOOOO",
"OOOO .                             .OOOOO",
"OOOOOOO                            XOOOOO",
"OOOOOOOOOX                         .OOOOO",
"OOOOOOOOOOOO   .                   OOOOOO",
"OOOOOOOOOOOOOO.  .                OOOOOOO",
"OOOOOOOOOOOOOOOOOX              ..OOOOOOO",
"OOOOOOOOOOOOOOOOOOO ..       .X .OOOOOOOO",
"OOOOOOOOOOOOOOOOOOOOOo.. .     .OOOOOOOOO",
"OOOOOOOOOOOOOOOOOOOOOOOOX.  . XOOOOOOOOOO"
};
