/* XPM */
static char *pause_active[] = {
/* columns rows colors chars-per-pixel */
"41 42 2 1 ",
"  c #5B7BF3",
". c None",
/* pixels */
".........................................",
".........................................",
".........................................",
"......          ........            .....",
"....             ......               ...",
"...               .....               ...",
"..                 ...                ...",
"..                 ...                ...",
"...                ...                ...",
"...                ...                ...",
"...                ...                ...",
"...                ...                ...",
"...                ...                ...",
"...                ...                ...",
"...                ...                 ..",
"...                ...                 ..",
"...                ...                 ..",
"...                ...                 ..",
"...                ...                 ..",
"...                ...                 ..",
"...                ...                 ..",
"...                ...                 ..",
"...                ...                 ..",
"...                ...                 ..",
"...                ...                 ..",
"...                ...                 ..",
"...                ...                 ..",
"..                 ...                 ..",
"..                 ...                 ..",
"..                ....                 ..",
"...               ....                 ..",
"...               ....                 ..",
"...               ....                 ..",
"...               ....                 ..",
"...               ....                 ..",
"....              .....               ...",
"....              .....               ...",
".....             ......             ....",
"......            .......           .....",
"........         ........................",
".........................................",
"........................................."
};
