/* XPM */
static char *save[] = {
/* columns rows colors chars-per-pixel */
"41 42 107 2 ",
"   c #217132",
".  c #277F38",
"X  c #307539",
"o  c #268037",
"O  c #268639",
"+  c #2B833C",
"@  c #258D3A",
"#  c #2C8C3C",
"$  c #30873D",
"%  c #328C3F",
"&  c #23943B",
"*  c #2A943E",
"=  c #249C3E",
"-  c #2A9B3F",
";  c #25A23E",
":  c #23A93F",
">  c #338B40",
",  c #2E9440",
"<  c #2C9D41",
"1  c #329441",
"2  c #3A9444",
"3  c #329A42",
"4  c #3B9945",
"5  c #26A640",
"6  c #2CA542",
"7  c #26AD41",
"8  c #2CAC44",
"9  c #34A645",
"0  c #38A246",
"q  c #32AD46",
"w  c #38AD47",
"e  c #3FA54A",
"r  c #37AE48",
"t  c #3AAD4A",
"y  c #24B342",
"u  c #2BB645",
"i  c #2CB846",
"p  c #2FB748",
"a  c #32B246",
"s  c #31B847",
"d  c #35B449",
"f  c #3BB44C",
"g  c #34B949",
"h  c #3BBB4C",
"j  c #409F4A",
"k  c #4E994D",
"l  c #46A74E",
"z  c #41AC4B",
"x  c #41B54D",
"c  c #41BC4F",
"v  c #4DAD51",
"b  c #5BA254",
"n  c #54AD54",
"m  c #5AA956",
"M  c #45B750",
"N  c #4AB351",
"B  c #43BE51",
"V  c #4BBE53",
"C  c #57B056",
"Z  c #5AB457",
"A  c #52BD56",
"S  c #5DB358",
"D  c #56BD58",
"F  c #59BA58",
"G  c #61BC5B",
"H  c #47C052",
"J  c #4BC154",
"K  c #52C357",
"L  c #55C459",
"P  c #5BC65B",
"I  c #5EC85D",
"U  c #61C95F",
"Y  c #6AC361",
"T  c #66CA61",
"R  c #6CCD63",
"E  c #71CD65",
"W  c #77CF68",
"Q  c #7ECD6B",
"!  c #73D067",
"~  c #75D068",
"^  c #7CD26B",
"/  c #83D46D",
"(  c #86D86E",
")  c #86D670",
"_  c #8AD671",
"`  c #8CD872",
"'  c #93DA76",
"]  c #99DC77",
"[  c #9CDD79",
"{  c #A1DF7B",
"}  c #A5E17E",
"|  c #ADE381",
" . c #B3E684",
".. c #B7E886",
"X. c #BCE989",
"o. c #C4ED8D",
"O. c #CBEE8F",
"+. c #CDEF91",
"@. c #CEF092",
"#. c #D1F293",
"$. c #DCF496",
"%. c #DDF498",
"&. c #E2F59A",
"*. c #ECF99F",
"=. c #F7FDA4",
"-. c #F8FEA6",
";. c None",
/* pixels */
";.;.;.;.;.;.;.;.;.;.;.;.;.y & y 7 u g J ;.;.;.;.;.;.;.;.;.;.;.;.;.;.;.;.;.;.;.;.;.",
";.;.;.;.;.;.;.;.;.;.;.;.;.7   @ & : s J U ^ ` ;.;.;.;.;.;.;.;.;.;.;.;.;.;.;.;.;.;.",
";.;.;.;.;.;.;.;.;.;.;.;.;.g % o O @ 6 h L R ! ! ;.;.;.;.;.;.;.;.;.;.;.;.;.;.;.;.;.",
";.;.;.;.;.;.;.;.;.;.;.;.;.P J z 9 9 8 q h J U I I ;.;.;.;.;.;.;.;.;.;.;.;.;.;.;.;.",
";.;.;.;.;.;.;.;.;.;.;.;.;.;./ R P J h g g h J J H ;.;.;.;.;.;.;.;.;.;.;.;.;.;.;.;.",
";.;.;.;.;.;.;.;.;.;.;.;.;.;.;.| ` E I H g u s g h ;.;.;.;.;.;.;.;.;.;.;.;.;.;.;.;.",
";.;.;.;.;.;.;.;.;.;.;.;.;.;.;.;.;./ E U J s u u g ;.;.;.;.;.;.;.;.;.;.;.;.;.;.;.;.",
";.;.;.;.;.;.;.;.;.;.;.;.;.;.;.;.;.[ / ^ I h u u H ;.;.;.;.;.;.;.;.;.;.;.;.;.;.;.;.",
";.;.;.;.;.;.;.;.;.;.;.;.;.;.;.;.%.| ' ( U H s h R ;.;.;.;.;.;.;.;.;.;.;.;.;.;.;.;.",
";.;.;.;.;.;.;.;.;.;.;.;.;.;.;.+.O.] ' ^ R H h H [ ;.;.;.;.;.;.;.;.;.;.;.;.;.;.;.;.",
";.;.;.;.;.;.;.;.;.;.;.;.;.;.+.o.| ' ( ^ R B h I  .;.;.;.;.;.;.;.;.;.;.;.;.;.;.;.;.",
";.;.;.;.;.;.;.;.;.;.;.;.;.;.+.o.| ' / I H i B !  .;.;.;.;.;.;.;.;.;.;.;.;.;.;.;.;.",
";.;.;.;.;.;.;.;.;.;.;.;.;.;.+.o.| ` T g i y H ! | ;.;.;.;.;.;.;.;.;.;.;.;.;.;.;.;.",
";.;.;.;.;.;.;.;.;.;.;.;.;.;.+.o.] ^ H y y y H ! } ;.;.;.;.;.;.;.;.;.;.;.;.;.;.;.;.",
";.;.;.;.;.;.;.;.;.;.;.;.;.;.@.X.` R g y y y J ! ' ;.;.;.;.;.;.;.;.;.;.;.;.;.;.;.;.",
";.;.;.;.;.;.;.;.;.;.;.;.;.;.#.X.] R g y y i J R ^ [ ;.;.;.;.;.;.;.;.;.;.;.;.;.;.;.",
";.;.;.;.;.;.;.;.;.;.;.;.;.;.;.o.| ~ h i y i J T R ^ ;.;.;.;.;.;.;.;.;.;.;.;.;.;.;.",
";.;.;.;.;.;.;.;.;.;.;.;.;.;.;.@. .( J i y s h J P R ;.;.;.;.;.;.;.;.;.;.;.;.;.;.;.",
";.;.;.;.;.;.;.;.;.;.;.;.;.;.;.;..._ J i y 8 f h J P ;.;.;.;.;.;.;.;.;.;.;.;.;.;.;.",
";.;.;.;.;.;.;.;.;.;.;.;.;.;.;.;..._ J u ; - a h h J ;.;.;.;.;.;.;.;.;.;.;.;.;.;.;.",
";.;.;.;.;.;.;.;.;.;.;.;.;.;.;.;..._ V 9 @ - 8 f B K ;.;.;.;.;.;.;.;.;.;.;.;.;.;.;.",
";.;.;.;.;.;.;.;.;.;.;.;.;.;.;.;.X._ A 1 @ - r h K T ;.;.;.;.;.;.;.;.;.;.;.;.;.;.;.",
";.;.;.;.;.f ;.;.;.;.;.;.;.;.;.;.X.' F 1 O - r V I R ;.;.;.;.;.;.;.;.;.;.;.;.;.;.;.",
";.;.;.g g f f M ;.;.;.;.;.;.;.;.o.' G 2 # - f K T ^ ;.;.;.;.;.;.;.;.;.;.;.;.;.;.;.",
";.s g f d d t x ;.;.;.;.;.;.;.;.o.[ Y j , 6 f L R ` ;.;.;.;.;.;.;.;.;.;.;.U K h 5 ",
"i s h h d q t x A ;.;.;.;.;.;.;.+.| E l < 6 h L E ' ;.;.;.;.;.;.;.;.;.! R I J O < ",
"h h c h f q w f V ;.;.;.;.;.;.;.+. .Q v < 8 h L ^ [ ;.;.;.;.;.;.;.;.~ R U L . O 5 ",
"V J J J d q 3 t V P ;.;.;.;.;.;.#. .) n , 8 f P ^  .;.;.;.;.;.;.;.^ ! T L % . 7 5 ",
"L L K V t 6 3 t M P R ;.;.;.;.;.%.X._ m , 5 h P _ +.;.;.;.;.;.;.^ E T D 4 # u 7 < ",
";.W R I e 5 # 3 x A Y ^ ;.;.;.;.*.o._ Z > 5 B T [ &.-.;.;.;.X.) R T P e < y u q < ",
";.;.} E N 9 * < t N P E _ | ;.;.=.$.' F , 5 B T { %.*.;.;.[ E T I P B a i g g q , ",
";.;.;.;.S 4 < + q 0 M L R ^ { $.=.*.| P 6 7 B T _ X.@. .` I B V V B s g h H h ;.;.",
";.;.;.;.;.k 4 X % $ % t z K T } *.&.| P 8 y g L R [ { R H g i h B B B H K J ;.;.;.",
";.;.;.;.;.;.;.b m n n x f g h R ^ ;.^ P s y s B P R U g y i c K P I I I I ;.;.;.;.",
";.;.;.;.;.;.;.;.;.[ ` / L h i V P T I H i y u g h c g y y g J P R ~ ! ;.;.;.;.;.;.",
";.;.;.;.;.;.;.;.;.;. .[ / P g i h B B g i 5 5 u i i u i i g J I R ^ ;.;.;.;.;.;.;.",
";.;.;.;.;.;.;.;.;.;.;.;./ T J h s g g i ; & : y u h H H g g H ;.;.;.;.;.;.;.;.;.;.",
";.;.;.;.;.;.;.;.;.;.;.;.;.R R T L h s y & & ; u h L P J ;.;.;.;.;.;.;.;.;.;.;.;.;.",
";.;.;.;.;.;.;.;.;.;.;.;.;.;.' E T K h 6 = = 7 h K U U ;.;.;.;.;.;.;.;.;.;.;.;.;.;.",
";.;.;.;.;.;.;.;.;.;.;.;.;.;.;.;./ P c u 7 8 h K U R ;.;.;.;.;.;.;.;.;.;.;.;.;.;.;.",
";.;.;.;.;.;.;.;.;.;.;.;.;.;.;.;.;.~ B i s h P R ;.;.;.;.;.;.;.;.;.;.;.;.;.;.;.;.;.",
";.;.;.;.;.;.;.;.;.;.;.;.;.;.;.;.;.;.B s c D Y ;.;.;.;.;.;.;.;.;.;.;.;.;.;.;.;.;.;."
};
