/* XPM */
static char *start[] = {
/* columns rows colors chars-per-pixel */
"41 42 2 1 ",
"  c #42C795",
". c None",
/* pixels */
".........................................",
".   .....................................",
"      ...................................",
"        .................................",
"          ...............................",
"            .............................",
"               ..........................",
"                 ........................",
"                   ......................",
"                     ....................",
"                        .................",
"                          ...............",
".                           .............",
".                             ...........",
"..                              .........",
"...                               .......",
"....                                 ....",
".....                                  ..",
".....                                   .",
".....                                    ",
".....                                    ",
".....                                    ",
".....                                    ",
".....                                  ..",
".....                                ....",
"....                               ......",
"...                              ........",
"...                            ..........",
"..                           ............",
".                          ..............",
"                         ................",
"                       ..................",
"                    .....................",
"                  .......................",
"                .........................",
"              ...........................",
"            .............................",
"          ...............................",
"        .................................",
"       ..................................",
".    ....................................",
"........................................."
};
