/* XPM */
static char *start_bubble[] = {
/* columns rows colors chars-per-pixel */
"41 42 5 1 ",
"  c #1FB1E0",
". c #1FB1E1",
"X c #1FB2E1",
"o c #1FB2E2",
"O c None",
/* pixels */
"OOOOOOOOOOOOOOOOOOOOOOOXX  OOOOOOOOOOOOOO",
"OOOOOOOOOOOOOOOO  XX  XXXX XXX OOOOOOOOOO",
"OOOOOOOOOOOOOX.XXX.X     XXX X .X OOOOOOO",
"OOOOOOOOOOOO        .X   .       XOOOOOOO",
"OOOOOOOOOOOX .        X X    .     OOOOOO",
"OOOOOOOOOOO. X    .XXOOOOOX  X X . OOOOOO",
"OOOOOOOOOOO .     OOOOOOOOOOOOOXXX OOOOOO",
"OOOOOOOOOO .    XOOOOOOOOOOOOOOOOOOOOOOOO",
"OOOOOOOOOO .    OOOOOOOOOOOOOOOOOOOOOOOOO",
"OOOOOOOOO. XX  OOOOOOOOOOOOOOOOOOOOOOOOOO",
"OOOOOOOOO   ..XOOOOOOOOOOOOOOOOOOOOOOOOOO",
"OOOOOOOOO.. X OOOOOOOOOOOOOOOOOOOOOOOOOOO",
"OOOOOOOOOX X XOOOOOOOOOOOOOOOOOOOOOOOOOOO",
"OOOOOOOOO  XXXOOOOOOOOOOOOOOOOOOOOOOOOOOO",
"OOOOOOOOOX XXXOOOOOOOOOOOOOOOOOOOOOOOOOOO",
"OOOOOOOOX X X OOOOOOOOOOOX  X. OOOOOOOOOO",
"OOOOOOOOOX   XXOOOOOOOO. .   X XXOOOOOOOO",
"OOOOOOOOO.  X  XOOOO XXX          OOOOOOO",
"OOOOOOOOO .    XXX   X            XOOOOOO",
"OOOOOOOOOO .             . .      XXXOOOO",
"OOOOOOOOOOXX             X.X.X     . OOOO",
"OOOOOOOOOOOO X          .OOOOOX  . . OOOO",
"OOOOOOOOOOOOOOXX . XX  OOOOOOOOXX.  XOOOO",
"OOOOOOOOOOOOOOOOOOOOOOOOOOOOOOOOX.. .XOOO",
"OOOOOOOOOOOOOOOOOOOOOOOOOOOOOOOO X  X OOO",
"OOOOOOOOOOOOOOOOOOOOOOOOOOOOOOOO     XOOO",
"OOOOOOOOOOOOOOOOOOOOOOOOOOOOOOOOX   .OOOO",
"OOOOOOOOOOOOOOOOOOOOOOOOOOOOOOOOXX  .OOOO",
"OOOOOOOOOOOOOOOOOOOOOOOOOOOOOOOOX X .OOOO",
"OOOOOOOOOOOOOOOOOOOOOOOOOOOOOOOOX... oOOO",
"OOOOOOOOOOOOOOOOOOOOOOOOOOOOOOOO. X.XXOOO",
"OOOOOOOOOOOOOOOOOOOOOOOOOOOOOOOXX  .XOOOO",
"OOOOOOOOOOOOOOOOOOOOOOOOOOOOOOO .    OOOO",
"OOOOOOOOO  X OOOOOOOOOOOOOOOOOO XX  XOOOO",
"OOOOOOOO . ..XOOOOOOOOOOOOOOOOX    XOOOOO",
"OOOOOOOO    XXXXOOOOOOOOOOOOXX .   .OOOOO",
"OOOOOOOO. .   X XXXXXX.X XX XX   .XOOOOOO",
"OOOOOOOO X.        .      .  X  XOOOOOOOO",
"OOOOOOOOOXXX X               X XOOOOOOOOO",
"OOOOOOOOOOOX . X           X.XXOOOOOOOOOO",
"OOOOOOOOOOOOOOXXX..  .  .X X OOOOOOOOOOOO",
"OOOOOOOOOOOOOOOOOOOOOOOOOOOOOOOOOOOOOOOOO"
};
