/* XPM */
static char *stop[] = {
/* columns rows colors chars-per-pixel */
"41 42 4 1 ",
"  c #D54D67",
". c #D64D67",
"X c #D74D67",
"o c None",
/* pixels */
"ooooooooooooooooooooooooooooooooooooooooo",
"ooooooooooooooooooooooooooooooooooooooooo",
"ooooooooooooooooooooooooooooooooooooooooo",
"ooooo...............................Xoooo",
"oooo..................................ooo",
"ooo...................................ooo",
"ooo...................................ooo",
"ooo...................................ooo",
"ooo...................................ooo",
"ooo...................................ooo",
"ooo...................................ooo",
"ooo..................... .............ooo",
"ooo......XXXXXXXXXXXXXXX..............ooo",
"ooo...................................ooo",
"ooo...................................ooo",
"ooo...................................ooo",
"ooo...................................ooo",
"ooo...................................ooo",
"ooo...................................ooo",
"ooo...................................ooo",
"ooo...................................ooo",
"ooo...................................ooo",
"ooo...................................ooo",
"ooo...................................ooo",
"ooo...................................ooo",
"ooo...................................ooo",
"ooo...................................ooo",
"ooo...................................ooo",
"ooo...................................ooo",
"ooo..............XXXXXXXXXXXXXXX......ooo",
"ooo............. .....................ooo",
"ooo...................................ooo",
"ooo...................................ooo",
"ooo...................................ooo",
"ooo...................................ooo",
"ooo...................................ooo",
"ooo...................................ooo",
"ooo..................................oooo",
"ooooX...............................ooooo",
"ooooooooooooooooooooooooooooooooooooooooo",
"ooooooooooooooooooooooooooooooooooooooooo",
"ooooooooooooooooooooooooooooooooooooooooo"
};
